<!DOCTYPE svg PUBLIC "-//W3C//DTD SVG 20010904//EN" "http://www.w3.org/TR/2001/REC-SVG-20010904/DTD/svg10.dtd">
<svg version="1.0" xmlns="http://www.w3.org/2000/svg" width="512px" height="512px" viewBox="0 0 5120 5120" preserveAspectRatio="xMidYMid meet">
<g id="layer101" fill="#010101" stroke="none">
 <path d="M1128 4711 c-32 -26 -52 -73 -44 -105 3 -13 18 -38 32 -55 l26 -31 224 0 224 0 0 -425 0 -425 -182 0 c-215 0 -242 -8 -265 -75 -12 -35 -12 -45 3 -77 28 -62 58 -68 367 -68 l267 0 2 -527 3 -528 -41 2 c-35 1 -199 40 -245 58 -13 5 -24 -28 -66 -187 -29 -106 -50 -194 -48 -196 1 -2 76 -23 165 -47 89 -24 165 -46 168 -50 4 -4 8 -132 10 -286 3 -277 3 -279 -18 -279 -11 0 -36 -6 -55 -14 -90 -38 -91 -174 -2 -207 27 -10 35 -20 51 -72 25 -79 102 -193 173 -256 69 -61 190 -126 270 -144 50 -12 55 -14 31 -20 -31 -8 -63 -56 -73 -108 -8 -41 13 -100 48 -137 29 -31 90 -62 122 -62 42 0 103 38 132 81 44 67 30 172 -28 213 l-22 15 24 5 c13 3 46 10 72 16 27 6 64 17 83 25 49 20 183 125 238 186 45 50 116 180 116 212 0 9 18 28 40 42 76 48 89 124 30 180 -19 18 -26 32 -21 39 22 27 101 198 120 260 37 119 23 225 -36 278 -27 25 -104 58 -135 58 l-28 0 0 144 c0 129 2 145 18 150 9 3 153 42 320 87 l303 82 32 -30 c59 -56 119 -70 150 -35 21 23 21 45 2 82 -15 28 -14 29 18 35 84 19 146 71 154 132 5 39 6 40 277 213 227 146 283 177 346 195 149 42 258 105 378 219 163 155 251 352 259 584 5 109 -13 206 -59 330 -87 236 -304 432 -570 514 l-73 23 -1631 3 c-1613 2 -1631 2 -1656 -17z m1837 -249 c-33 -33 -230 -226 -437 -431 l-377 -371 -171 0 -170 0 0 428 0 427 608 3 607 3 -60 -59z m1341 44 c264 -12 472 -171 565 -433 30 -83 37 -265 14 -353 -54 -209 -247 -403 -450 -453 -139 -34 -268 -28 -391 18 -70 26 -163 86 -208 134 l-30 31 35 1 c19 0 50 6 69 13 46 17 67 71 50 129 -16 54 -52 67 -185 67 -76 0 -107 4 -110 13 -2 6 -9 30 -14 53 -26 99 -94 144 -164 107 -18 -9 -36 -22 -42 -30 -7 -9 -9 39 -7 151 l3 164 36 -11 c35 -11 37 -10 71 28 75 87 76 75 -21 173 l-87 87 0 62 0 62 388 -5 c213 -2 428 -6 478 -8z m-1086 -587 l0 -259 -282 0 -281 0 269 264 c148 145 275 261 282 259 9 -4 12 -66 12 -264z m361 -526 c173 -232 371 -346 622 -362 l100 -6 -218 -140 c-120 -77 -222 -141 -226 -143 -4 -2 -19 17 -35 42 -31 49 -62 70 -116 80 -35 6 -128 -16 -780 -193 l-108 -29 -2 404 -3 404 361 0 362 0 43 -57z"/>
 <path d="M226 2709 c-120 -21 -220 -40 -223 -43 -5 -5 56 -378 63 -386 6 -5 443 66 451 74 6 6 -57 379 -65 387 -4 3 -105 -12 -226 -32z"/>
 <path d="M937 2638 c-8 -13 -50 -79 -92 -148 -43 -69 -84 -134 -92 -146 -13 -20 -6 -25 153 -124 91 -56 169 -98 174 -94 14 16 200 315 200 323 0 6 -294 198 -321 209 -4 2 -14 -7 -22 -20z"/>
 </g>
<g id="layer102" fill="#d40f0f" stroke="none">
 <path d="M1162 4683 c-7 -3 -19 -17 -27 -32 -12 -25 -12 -31 5 -59 l19 -32 238 -2 238 -3 0 -465 0 -465 -218 -3 -218 -2 -9 -26 c-14 -37 -12 -52 10 -74 19 -19 33 -20 304 -20 l285 0 3 33 3 32 136 3 c130 2 137 4 159 27 l23 25 -170 0 c-153 0 -172 2 -178 17 -3 10 -3 221 1 470 l7 453 651 0 650 0 48 47 48 47 110 -109 109 -109 3 60 3 59 475 0 c425 0 483 -2 553 -18 193 -45 363 -178 445 -347 57 -117 75 -193 76 -320 0 -192 -54 -321 -194 -460 -47 -47 -111 -100 -142 -118 -221 -130 -509 -120 -720 26 -54 37 -158 141 -158 158 0 9 26 15 81 20 88 7 109 20 109 63 0 48 -21 56 -159 61 l-126 5 -18 60 c-10 33 -24 71 -32 85 -16 30 -61 38 -90 16 -20 -14 -22 -35 -12 -136 2 -23 -1 -25 -43 -25 l-45 0 -3 256 -2 256 -60 16 c-33 10 -62 17 -65 17 -3 0 -5 -124 -5 -275 l0 -275 -321 0 -321 0 -29 -25 -30 -24 123 -3 123 -3 3 -32 3 -33 372 -2 372 -3 67 -85 c155 -196 297 -288 501 -327 94 -18 232 -13 337 12 214 51 433 229 530 430 51 106 70 179 77 302 17 299 -109 556 -355 721 -48 32 -120 70 -160 85 -159 59 -102 57 -1811 56 -861 0 -1572 -3 -1579 -6z"/>
 <path d="M2985 4420 c-177 -177 -179 -180 -160 -198 11 -10 55 -51 98 -92 l78 -74 87 87 c48 48 95 87 103 87 9 0 77 -18 152 -40 74 -22 141 -40 149 -40 7 0 25 15 40 33 l26 34 -191 191 c-106 106 -194 192 -197 192 -3 0 -86 -81 -185 -180z"/>
 <path d="M1830 2956 c0 -395 -3 -577 -11 -581 -5 -4 -18 0 -28 9 -9 8 -33 15 -52 15 -29 -1 -189 36 -240 56 -13 5 -24 -28 -66 -187 -29 -106 -50 -194 -48 -196 1 -2 70 -21 151 -43 194 -52 184 -48 184 -65 0 -15 56 -17 383 -14 l147 1 0 -275 0 -276 320 0 320 0 46 93 c72 143 96 213 97 287 2 103 -33 149 -131 172 l-48 12 4 164 c4 157 4 164 -14 159 -50 -15 -207 -56 -274 -72 -41 -10 -107 -28 -147 -41 -81 -26 -164 -29 -204 -8 -15 7 -41 36 -58 64 -27 43 -31 60 -31 118 0 37 4 72 8 78 17 26 102 55 360 124 l272 73 0 454 0 453 -470 0 -470 0 0 -574z m890 -1244 c22 -27 26 -82 10 -113 -12 -21 -80 -59 -107 -59 -33 0 -78 36 -89 71 -11 35 -2 94 17 114 38 39 134 32 169 -13z"/>
 <path d="M3488 2777 c-106 -29 -148 -44 -148 -55 0 -8 14 -66 31 -129 23 -81 36 -113 45 -109 7 3 32 10 55 16 41 11 42 11 83 -29 48 -47 96 -64 96 -35 0 11 -9 34 -21 53 -12 19 -17 37 -11 43 4 4 39 17 77 28 79 23 112 49 121 97 8 43 -18 105 -59 139 -40 34 -90 30 -269 -19z"/>
 <path d="M226 2709 c-120 -21 -220 -40 -223 -43 -5 -5 56 -378 63 -386 6 -5 443 66 451 74 6 6 -57 379 -65 387 -4 3 -105 -12 -226 -32z"/>
 <path d="M937 2638 c-8 -13 -50 -79 -92 -148 -43 -69 -84 -134 -92 -146 -13 -20 -6 -25 153 -124 91 -56 169 -98 174 -94 14 16 200 315 200 323 0 6 -294 198 -321 209 -4 2 -14 -7 -22 -20z"/>
 <path d="M1735 1158 c20 -73 85 -177 150 -243 202 -204 506 -231 731 -66 99 72 155 135 193 215 54 113 71 102 -161 109 -112 4 -364 7 -561 7 l-358 0 6 -22z"/>
 </g>
<g id="layer103" fill="#fefefe" stroke="none">
 <path d="M1162 4683 c-7 -3 -19 -17 -27 -32 -12 -25 -12 -31 5 -59 l19 -32 238 -2 238 -3 0 -465 0 -465 -218 -3 -218 -2 -9 -26 c-14 -37 -12 -52 10 -74 19 -19 33 -20 304 -20 l285 0 3 33 3 32 136 3 c130 2 137 4 159 27 l23 25 -170 0 c-153 0 -172 2 -178 17 -3 10 -3 221 1 470 l7 453 651 0 650 0 48 47 48 47 110 -109 109 -109 3 60 3 59 475 0 c425 0 483 -2 553 -18 193 -45 363 -178 445 -347 57 -117 75 -193 76 -320 0 -192 -54 -321 -194 -460 -47 -47 -111 -100 -142 -118 -221 -130 -509 -120 -720 26 -54 37 -158 141 -158 158 0 9 26 15 81 20 88 7 109 20 109 63 0 48 -21 56 -159 61 l-126 5 -18 60 c-10 33 -24 71 -32 85 -16 30 -61 38 -90 16 -20 -14 -22 -35 -12 -136 2 -23 -1 -25 -43 -25 l-45 0 -3 256 -2 256 -60 16 c-33 10 -62 17 -65 17 -3 0 -5 -124 -5 -275 l0 -275 -321 0 -321 0 -29 -25 -30 -24 123 -3 123 -3 3 -32 3 -33 372 -2 372 -3 67 -85 c155 -196 297 -288 501 -327 94 -18 232 -13 337 12 214 51 433 229 530 430 51 106 70 179 77 302 17 299 -109 556 -355 721 -48 32 -120 70 -160 85 -159 59 -102 57 -1811 56 -861 0 -1572 -3 -1579 -6z"/>
 <path d="M2985 4420 c-177 -177 -179 -180 -160 -198 11 -10 55 -51 98 -92 l78 -74 87 87 c48 48 95 87 103 87 9 0 77 -18 152 -40 74 -22 141 -40 149 -40 7 0 25 15 40 33 l26 34 -191 191 c-106 106 -194 192 -197 192 -3 0 -86 -81 -185 -180z"/>
 <path d="M1830 2959 l0 -570 63 2 62 3 0 -222 c0 -122 3 -222 8 -222 4 0 54 0 112 0 l105 0 0 125 c0 117 -2 128 -25 165 -20 32 -25 52 -25 107 0 38 4 73 8 79 17 26 102 55 360 124 l272 73 0 454 0 453 -470 0 -470 0 0 -571z"/>
 <path d="M3488 2777 c-106 -29 -148 -44 -148 -55 0 -8 14 -66 31 -129 23 -81 36 -113 45 -109 7 3 32 10 55 16 41 11 42 11 83 -29 48 -47 96 -64 96 -35 0 11 -9 34 -21 53 -12 19 -17 37 -11 43 4 4 39 17 77 28 79 23 112 49 121 97 8 43 -18 105 -59 139 -40 34 -90 30 -269 -19z"/>
 <path d="M2555 2213 c-27 -8 -74 -21 -102 -29 l-53 -15 0 -109 0 -109 -72 -3 -73 -3 -3 -272 -2 -273 320 0 320 0 46 93 c72 142 96 213 98 287 1 80 -21 124 -79 154 -36 19 -54 20 -182 18 l-143 -4 0 141 c0 107 -3 141 -12 140 -7 -1 -35 -8 -63 -16z m165 -501 c22 -27 26 -82 10 -113 -12 -21 -80 -59 -107 -59 -33 0 -78 36 -89 71 -11 35 -2 94 17 114 38 39 134 32 169 -13z"/>
 <path d="M1735 1158 c20 -73 85 -177 150 -243 202 -204 506 -231 731 -66 99 72 155 135 193 215 54 113 71 102 -161 109 -112 4 -364 7 -561 7 l-358 0 6 -22z"/>
 </g>

</svg>